<svg width="105" height="142" viewBox="0 0 105 142" fill="none" xmlns="http://www.w3.org/2000/svg">
<rect width="105" height="142" fill="white"/>
<path d="M26.457 114.262H27.2422V120H26.457V114.262ZM32.6836 114.262V114.945H30.75V120H29.9609V114.945H28.0273V114.262H32.6836ZM35.75 117.648L34.8789 115.113L33.9531 117.648H35.75ZM34.4727 114.262H35.3516L37.4336 120H36.582L36 118.281H33.7305L33.1094 120H32.3125L34.4727 114.262ZM40.3438 119.336C40.6068 119.336 40.8229 119.309 40.9922 119.254C41.2943 119.152 41.5417 118.957 41.7344 118.668C41.888 118.436 41.9987 118.139 42.0664 117.777C42.1055 117.561 42.125 117.361 42.125 117.176C42.125 116.465 41.9831 115.913 41.6992 115.52C41.418 115.126 40.9635 114.93 40.3359 114.93H38.957V119.336H40.3438ZM38.1758 114.262H40.5C41.2891 114.262 41.901 114.542 42.3359 115.102C42.724 115.607 42.918 116.254 42.918 117.043C42.918 117.652 42.8034 118.203 42.5742 118.695C42.1706 119.565 41.4766 120 40.4922 120H38.1758V114.262ZM46.8672 117.648L45.9961 115.113L45.0703 117.648H46.8672ZM45.5898 114.262H46.4688L48.5508 120H47.6992L47.1172 118.281H44.8477L44.2266 120H43.4297L45.5898 114.262ZM49.2578 114.262H50.0156V117.059L52.8125 114.262H53.8867L51.5 116.574L53.9531 120H52.9414L50.9336 117.121L50.0156 118V120H49.2578V114.262ZM54.7695 114.262H55.5547V120H54.7695V114.262ZM56.8008 114.262H57.9141L59.5625 119.113L61.1992 114.262H62.3008V120H61.5625V116.613C61.5625 116.496 61.5651 116.302 61.5703 116.031C61.5755 115.76 61.5781 115.47 61.5781 115.16L59.9414 120H59.1719L57.5234 115.16V115.336C57.5234 115.477 57.526 115.691 57.5312 115.98C57.5391 116.267 57.543 116.478 57.543 116.613V120H56.8008V114.262ZM66.4297 117.648L65.5586 115.113L64.6328 117.648H66.4297ZM65.1523 114.262H66.0312L68.1133 120H67.2617L66.6797 118.281H64.4102L63.7891 120H62.9922L65.1523 114.262ZM69.3281 118.148C69.3464 118.474 69.4232 118.738 69.5586 118.941C69.8164 119.322 70.2708 119.512 70.9219 119.512C71.2135 119.512 71.4792 119.47 71.7188 119.387C72.1823 119.225 72.4141 118.936 72.4141 118.52C72.4141 118.207 72.3164 117.984 72.1211 117.852C71.9232 117.721 71.6133 117.608 71.1914 117.512L70.4141 117.336C69.9062 117.221 69.5469 117.095 69.3359 116.957C68.9714 116.717 68.7891 116.359 68.7891 115.883C68.7891 115.367 68.9674 114.944 69.3242 114.613C69.681 114.283 70.1862 114.117 70.8398 114.117C71.4414 114.117 71.9518 114.263 72.3711 114.555C72.793 114.844 73.0039 115.307 73.0039 115.945H72.2734C72.2344 115.638 72.151 115.402 72.0234 115.238C71.7865 114.939 71.3841 114.789 70.8164 114.789C70.3581 114.789 70.0286 114.885 69.8281 115.078C69.6276 115.271 69.5273 115.495 69.5273 115.75C69.5273 116.031 69.6445 116.237 69.8789 116.367C70.0326 116.451 70.3802 116.555 70.9219 116.68L71.7266 116.863C72.1146 116.952 72.4141 117.073 72.625 117.227C72.9896 117.495 73.1719 117.884 73.1719 118.395C73.1719 119.03 72.9401 119.484 72.4766 119.758C72.0156 120.031 71.4792 120.168 70.8672 120.168C70.1536 120.168 69.5951 119.986 69.1914 119.621C68.7878 119.259 68.5898 118.768 68.5977 118.148H69.3281ZM75 114.262V117.809C75 118.225 75.0781 118.572 75.2344 118.848C75.4661 119.264 75.8568 119.473 76.4062 119.473C77.0651 119.473 77.513 119.247 77.75 118.797C77.8776 118.552 77.9414 118.223 77.9414 117.809V114.262H78.7305V117.484C78.7305 118.19 78.6354 118.733 78.4453 119.113C78.0964 119.806 77.4375 120.152 76.4688 120.152C75.5 120.152 74.8424 119.806 74.4961 119.113C74.306 118.733 74.2109 118.19 74.2109 117.484V114.262H75Z" fill="#007A9B"/>
<path d="M9.93 97.32L7.65 97.29C7.74 97.74 7.755 98.37 7.755 98.79C7.755 99.705 7.785 101.43 7.92 102.795C8.34 106.785 9.765 108.255 11.385 108.255C12.585 108.255 13.515 107.34 14.505 104.76L13.005 102.96C12.72 104.13 12.135 105.87 11.43 105.87C10.5 105.87 10.05 104.415 9.84 102.27C9.75 101.205 9.735 100.08 9.75 99.12C9.75 98.715 9.825 97.845 9.93 97.32ZM17.355 97.635L15.465 98.265C17.085 100.095 17.88 103.59 18.105 105.975L20.07 105.225C19.905 102.945 18.765 99.36 17.355 97.635ZM28.995 102.315C29.925 102.195 30.825 102.15 31.86 102.15C32.76 102.15 33.675 102.24 34.41 102.33L34.455 100.545C33.585 100.455 32.685 100.41 31.845 100.41C30.885 100.41 29.82 100.485 28.995 100.56V102.315ZM30.165 97.545C29.355 97.74 28.515 97.905 27.675 98.04L27.795 97.47C27.87 97.14 28.005 96.48 28.11 96.075L25.845 95.895C25.875 96.24 25.86 96.84 25.785 97.395C25.755 97.635 25.71 97.92 25.65 98.25C25.2 98.28 24.765 98.295 24.33 98.295C23.715 98.295 23.22 98.265 22.455 98.175L22.5 100.035C23.025 100.065 23.58 100.095 24.3 100.095C24.6 100.095 24.93 100.08 25.275 100.065C25.17 100.485 25.065 100.905 24.96 101.295C24.405 103.38 23.28 106.5 22.395 107.985L24.48 108.675C25.29 106.935 26.295 103.89 26.835 101.805C27 101.205 27.15 100.545 27.285 99.9C28.275 99.78 29.28 99.615 30.165 99.42V97.545ZM28.08 104.13C27.96 104.715 27.825 105.435 27.825 106.11C27.825 107.61 29.1 108.48 31.605 108.48C32.79 108.48 33.795 108.375 34.635 108.27L34.71 106.365C33.645 106.56 32.61 106.665 31.62 106.665C30.03 106.665 29.655 106.185 29.655 105.54C29.655 105.21 29.745 104.715 29.865 104.295L28.08 104.13ZM48.645 98.685C48.375 98.13 47.835 97.185 47.46 96.63L46.275 97.125C46.68 97.695 47.145 98.595 47.445 99.21L48.645 98.685ZM43.545 102.48C44.475 102.375 45.375 102.315 46.41 102.315C47.31 102.315 48.225 102.42 48.96 102.51L49.005 100.71C48.135 100.62 47.235 100.59 46.395 100.59C45.435 100.59 44.37 100.65 43.545 100.74V102.48ZM44.715 97.725C43.905 97.92 43.065 98.085 42.225 98.205L42.345 97.65C42.42 97.32 42.555 96.66 42.66 96.24L40.395 96.06C40.425 96.42 40.41 97.02 40.335 97.575C40.305 97.8 40.26 98.1 40.2 98.415C39.75 98.445 39.315 98.46 38.88 98.46C38.265 98.46 37.77 98.445 37.005 98.355L37.05 100.2C37.575 100.23 38.13 100.26 38.85 100.26C39.15 100.26 39.48 100.245 39.825 100.23C39.735 100.65 39.615 101.07 39.51 101.475C38.955 103.56 37.83 106.665 36.945 108.165L39.03 108.855C39.84 107.1 40.845 104.07 41.385 101.985C41.55 101.37 41.7 100.71 41.835 100.08C42.825 99.96 43.83 99.795 44.715 99.585V97.725ZM42.63 104.31C42.51 104.88 42.375 105.6 42.375 106.29C42.375 107.79 43.65 108.66 46.155 108.66C47.34 108.66 48.345 108.555 49.185 108.45L49.26 106.545C48.195 106.725 47.16 106.845 46.17 106.845C44.58 106.845 44.205 106.35 44.205 105.705C44.205 105.375 44.295 104.895 44.415 104.46L42.63 104.31ZM48.045 96.435C48.465 97.005 48.945 97.875 49.26 98.505L50.445 97.995C50.19 97.47 49.635 96.525 49.23 95.955L48.045 96.435ZM53.865 103.785C53.7 104.34 53.505 105.135 53.505 105.81C53.505 107.865 55.215 108.81 57.99 108.81C59.475 108.81 60.99 108.66 61.815 108.525L61.875 106.62C60.825 106.83 59.355 106.95 57.945 106.95C56.01 106.95 55.35 106.32 55.35 105.39C55.35 105.03 55.515 104.4 55.71 103.95L53.865 103.785ZM63.675 99.48C63.015 99.735 62.16 99.99 61.02 100.215L60.675 99.465L60.39 98.82C61.365 98.655 62.175 98.445 62.94 98.22L62.625 96.555C61.74 96.855 60.78 97.08 59.775 97.245C59.58 96.72 59.415 96.21 59.31 95.76L57.195 96.165C57.45 96.57 57.645 96.9 57.915 97.44V97.455C56.595 97.53 55.11 97.47 53.415 97.29L53.505 98.985C55.305 99.165 57.165 99.165 58.62 99.045L58.98 99.885L59.235 100.47C57.555 100.65 55.53 100.65 53.31 100.44L53.385 102.15C55.635 102.315 58.05 102.27 59.91 102.06L60.585 103.605C60.18 103.56 59.595 103.515 59.01 103.44L58.845 104.865C59.835 104.985 61.26 105.21 62.085 105.36L62.97 104.235C62.535 103.425 62.115 102.555 61.74 101.76C62.61 101.58 63.42 101.385 64.035 101.16L63.675 99.48ZM73.155 106.035C73.155 106.89 72.645 107.13 71.85 107.13C70.83 107.13 70.305 106.77 70.305 106.215C70.305 105.705 70.875 105.3 71.925 105.3C72.345 105.3 72.75 105.345 73.14 105.405C73.155 105.66 73.155 105.87 73.155 106.035ZM79.095 106.41C78.24 105.69 76.815 104.7 74.94 104.16C74.895 103.59 74.865 102.99 74.835 102.435C76.275 102.39 77.43 102.285 78.765 102.135V100.38C77.55 100.53 76.305 100.665 74.805 100.725L74.82 99.18C76.245 99.105 77.445 98.985 78.42 98.895L78.375 97.185C77.085 97.38 75.99 97.5 74.835 97.545L74.85 96.96C74.865 96.585 74.91 96.21 74.955 95.91H72.93C72.99 96.195 73.005 96.66 73.005 96.93V97.605H72.27C71.355 97.605 69.975 97.5 69.045 97.32L69.06 99.015C69.915 99.15 71.34 99.24 72.285 99.24H72.99V100.785H72.285C71.49 100.785 69.555 100.68 68.7 100.515L68.685 102.27C69.675 102.39 71.385 102.465 72.255 102.465H73.02C73.035 102.9 73.05 103.365 73.08 103.815C72.78 103.785 72.48 103.77 72.165 103.77C69.87 103.77 68.49 104.82 68.49 106.32C68.49 107.895 69.75 108.795 72.12 108.795C74.085 108.795 75.045 107.82 75.045 106.545C75.045 106.395 75.045 106.215 75.03 106.02C76.215 106.56 77.235 107.325 78.03 108.075L79.095 106.41ZM87.045 103.065C87.045 102.285 87.615 101.895 88.185 101.895C88.605 101.895 88.95 102.06 89.16 102.42C89.355 103.71 88.8 104.175 88.185 104.175C87.6 104.175 87.045 103.755 87.045 103.065ZM94.965 97.68C94.185 97.665 92.16 97.68 90.66 97.68C90.66 97.5 90.675 97.35 90.675 97.23C90.69 96.99 90.735 96.195 90.78 95.955H88.62C88.68 96.195 88.725 96.765 88.755 97.245C88.77 97.35 88.77 97.515 88.77 97.695C86.775 97.725 84.075 97.8 82.38 97.8L82.425 99.6C84.255 99.495 86.55 99.405 88.8 99.375L88.815 100.365C88.635 100.335 88.44 100.32 88.23 100.32C86.61 100.32 85.26 101.415 85.26 103.095C85.26 104.91 86.67 105.825 87.825 105.825C88.065 105.825 88.29 105.795 88.5 105.75C87.675 106.635 86.37 107.13 84.87 107.445L86.445 109.035C90.075 108.015 91.215 105.555 91.215 103.62C91.215 102.84 91.035 102.12 90.66 101.565C90.66 100.92 90.66 100.11 90.645 99.36C92.655 99.36 94.05 99.39 94.95 99.435L94.965 97.68Z" fill="#FF7663"/>
<circle cx="52.5" cy="56.5" r="31.5" stroke="#007B9B" stroke-width="4"/>
<circle cx="41.5" cy="44.5" r="4.5" fill="#FF7663"/>
<mask id="mask0" mask-type="alpha" maskUnits="userSpaceOnUse" x="25" y="29" width="55" height="56">
<ellipse cx="52.5" cy="56.8767" rx="27.5" ry="27.8767" fill="#007A9B"/>
</mask>
<g mask="url(#mask0)">
<path d="M13.0039 53.8621C13.475 54.0977 13.6798 54.3127 13.9154 54.7634C14.11 55.1526 14.1202 55.1935 13.9563 55.4803L13.7925 55.7978H12.0514H10.3103L10.1465 55.4803C9.9826 55.1731 9.9826 55.1423 10.2182 54.7224C10.7712 53.729 11.9899 53.35 13.0039 53.8621ZM26.492 55.9719C27.2601 56.1153 27.9053 56.3816 28.6837 56.8732C29.2879 57.2522 30.2814 58.1944 30.2814 58.3788C30.2814 58.4505 29.5849 59.0854 28.9807 59.5771C28.7349 59.7614 28.7349 59.7614 28.1818 59.2391C26.4305 57.5799 23.8906 57.5799 22.1393 59.2391C21.5863 59.7614 21.5863 59.7614 21.3405 59.5771C20.6646 59.0342 20.0398 58.4505 20.0398 58.3583C20.0398 58.1739 21.0845 57.2214 21.7502 56.7913C22.4466 56.3509 23.4502 55.9924 24.3925 55.8593C25.0377 55.7671 25.56 55.7978 26.492 55.9719ZM52.7104 55.9719C53.4785 56.1153 54.1237 56.3816 54.9021 56.8732C55.5063 57.2522 56.4997 58.1944 56.4997 58.3788C56.4997 58.4505 55.8033 59.0854 55.1991 59.5771C54.9533 59.7614 54.9533 59.7614 54.4002 59.2391C52.6489 57.5799 50.109 57.5799 48.3577 59.2391C47.8047 59.7614 47.8047 59.7614 47.5589 59.5771C46.8829 59.0342 46.2582 58.4505 46.2582 58.3583C46.2582 58.1739 47.3028 57.2214 47.9685 56.7913C48.665 56.3509 49.6686 55.9924 50.6109 55.8593C51.2561 55.7671 51.7784 55.7978 52.7104 55.9719ZM78.9288 55.9719C79.6969 56.1153 80.3421 56.3816 81.1205 56.8732C81.7247 57.2522 82.7181 58.1944 82.7181 58.3788C82.7181 58.4505 82.0217 59.0854 81.4175 59.5771C81.1717 59.7614 81.1717 59.7614 80.6186 59.2391C78.8673 57.5799 76.3274 57.5799 74.5761 59.2391C74.023 59.7614 74.0231 59.7614 73.7773 59.5771C73.1013 59.0342 72.4766 58.4505 72.4766 58.3583C72.4766 58.1739 73.5212 57.2214 74.1869 56.7913C74.8833 56.3509 75.887 55.9924 76.8292 55.8593C77.4745 55.7671 77.9968 55.7978 78.9288 55.9719ZM14.8166 58.3583C16.6908 58.8601 18.1246 59.6897 19.5892 61.1031C20.6236 62.0863 21.1561 62.7725 21.0025 62.9057C20.9513 62.9569 20.5621 63.1412 20.1422 63.3256C19.7223 63.4997 19.3229 63.6738 19.2512 63.6943C19.1898 63.725 18.8006 63.3973 18.3807 62.9671C16.6499 61.1441 14.4991 60.2121 12.0514 60.2121C9.60366 60.2121 7.4427 61.1441 5.72212 62.9569L4.97448 63.7455L4.08347 63.3665C3.59187 63.1617 3.15148 62.9569 3.10028 62.9057C2.86472 62.7008 4.5341 60.8778 5.7426 60.0277C7.25835 58.9625 8.59999 58.43 10.72 58.0613C10.8634 58.0305 11.6213 58.0305 12.4099 58.051C13.5364 58.0817 14.0587 58.1534 14.8166 58.3583ZM41.035 58.3583C42.9092 58.8601 44.343 59.6897 45.8076 61.1031C46.842 62.0863 47.3745 62.7725 47.2209 62.9057C47.1697 62.9569 46.7805 63.1412 46.3606 63.3256C45.9407 63.4997 45.5413 63.6738 45.4696 63.6943C45.4081 63.725 45.019 63.3973 44.5991 62.9671C42.8682 61.1441 40.7175 60.2121 38.2698 60.2121C35.822 60.2121 33.6611 61.1441 31.9405 62.9569L31.1929 63.7455L30.3018 63.3665C29.8103 63.1617 29.3699 62.9569 29.3187 62.9057C29.0933 62.7008 30.7832 60.8573 31.9712 60.0277C33.4767 58.9625 34.8286 58.43 36.9384 58.0613C37.0818 58.0305 37.8396 58.0305 38.6282 58.051C39.7548 58.0817 40.2771 58.1534 41.035 58.3583ZM67.2534 58.3583C69.1276 58.8601 70.5614 59.6897 72.0259 61.1031C73.0603 62.0863 73.5929 62.7725 73.4393 62.9057C73.3881 62.9569 72.9989 63.1412 72.579 63.3256C72.1591 63.4997 71.7597 63.6738 71.688 63.6943C71.6265 63.725 71.2374 63.3973 70.8175 62.9671C69.0866 61.1441 66.9359 60.2121 64.4882 60.2121C62.0404 60.2121 59.8795 61.1441 58.1589 62.9569L57.4112 63.7455L56.5202 63.3665C56.0286 63.1617 55.5882 62.9569 55.537 62.9057C55.3117 62.7008 57.0016 60.8573 58.1896 60.0277C59.6951 58.9625 61.047 58.43 63.1568 58.0613C63.3001 58.0305 64.058 58.0305 64.8466 58.051C65.9732 58.0817 66.4955 58.1534 67.2534 58.3583ZM93.4718 58.3583C95.346 58.8601 96.7798 59.6897 98.2443 61.1031C99.2787 62.0863 99.8113 62.7725 99.6577 62.9057C99.6065 62.9569 99.2173 63.1412 98.7974 63.3256C98.3775 63.4997 97.9781 63.6738 97.9166 63.6943C97.8552 63.725 97.466 63.387 97.0461 62.9569C95.2743 61.1338 93.1543 60.2121 90.7066 60.2121C88.2588 60.2121 86.0978 61.1441 84.3773 62.9569L83.6296 63.7455L82.7386 63.3665C82.247 63.1617 81.8066 62.9569 81.7554 62.9057C81.5301 62.7008 83.22 60.8573 84.408 60.0277C85.9135 58.9625 87.2654 58.43 89.3751 58.0613C89.5185 58.0305 90.2764 58.0305 91.065 58.051C92.1916 58.0817 92.7139 58.1534 93.4718 58.3583ZM26.1745 60.4579C26.6149 60.6729 26.9017 61.0007 27.0962 61.4718C27.1987 61.7176 27.1987 61.82 27.0758 62.0556L26.9324 62.3321L25.1606 62.3424L23.3888 62.3526L23.2352 62.0351C23.0918 61.7278 23.102 61.6766 23.3273 61.267C23.9009 60.253 25.0991 59.9048 26.1745 60.4579ZM52.3929 60.4579C52.8333 60.6729 53.12 61.0007 53.3146 61.4718C53.417 61.7176 53.417 61.82 53.2941 62.0556L53.1508 62.3321L51.379 62.3424L49.6072 62.3526L49.4536 62.0351C49.3102 61.7278 49.3204 61.6766 49.5457 61.267C50.1193 60.253 51.3175 59.9048 52.3929 60.4579ZM78.6113 60.4579C79.0517 60.6729 79.3384 61.0007 79.533 61.4718C79.6354 61.7176 79.6354 61.82 79.5125 62.0556L79.3692 62.3321L77.5974 62.3424L75.8256 62.3526L75.6719 62.0351C75.5286 61.7278 75.5388 61.6766 75.7641 61.267C76.3377 60.253 77.5359 59.9048 78.6113 60.4579ZM14.0997 62.7008C14.9907 63.0081 16.1071 63.7148 16.6908 64.3395C16.9571 64.6263 17.1722 64.8926 17.1722 64.9336C17.1722 65.0052 16.4757 65.6402 15.8715 66.1319C15.6257 66.3162 15.6257 66.3162 15.0931 65.8144C14.0485 64.8414 13.1677 64.5034 11.7954 64.5751C10.7507 64.6263 9.83922 65.0257 9.03014 65.7836C8.39516 66.3879 8.49758 66.4084 7.50415 65.5071C6.8282 64.9131 6.8282 64.8823 7.56559 64.1859C8.30299 63.469 9.38859 62.8647 10.464 62.5574C11.2526 62.3321 13.2497 62.4141 14.0997 62.7008ZM40.3181 62.7008C41.2091 63.0081 42.3254 63.7148 42.9092 64.3395C43.1755 64.6263 43.3906 64.8926 43.3906 64.9336C43.3906 65.0052 42.6941 65.6402 42.0899 66.1319C41.8441 66.3162 41.8441 66.3162 41.3115 65.8144C40.2669 64.8414 39.3861 64.5034 38.0137 64.5751C36.9691 64.6263 36.0576 65.0257 35.2485 65.7836C34.6135 66.3879 34.716 66.4084 33.7225 65.5071C33.0466 64.9131 33.0466 64.8823 33.784 64.1859C34.5214 63.469 35.607 62.8647 36.6823 62.5574C37.4709 62.3321 39.468 62.4141 40.3181 62.7008ZM66.5365 62.7008C67.4275 63.0081 68.5438 63.7148 69.1276 64.3395C69.3939 64.6263 69.6089 64.8926 69.6089 64.9336C69.6089 65.0052 68.9125 65.6402 68.3083 66.1319C68.0625 66.3162 68.0625 66.3162 67.5299 65.8144C66.4853 64.8414 65.6045 64.5034 64.2321 64.5751C63.1875 64.6263 62.276 65.0257 61.4669 65.7836C60.8319 66.3879 60.9343 66.4084 59.9409 65.5071C59.265 64.9131 59.265 64.8823 60.0024 64.1859C60.7398 63.469 61.8254 62.8647 62.9007 62.5574C63.6893 62.3321 65.6864 62.4141 66.5365 62.7008ZM92.7549 62.7008C93.1236 62.834 93.6971 63.1003 94.035 63.3051C94.6905 63.6943 95.8273 64.7185 95.8273 64.9028C95.8273 65.0052 95.2128 65.5788 94.5266 66.1319C94.2809 66.3162 94.2808 66.3162 93.7483 65.8144C92.7037 64.8414 91.8229 64.5034 90.4505 64.5751C89.4059 64.6263 88.4944 65.0257 87.6853 65.7836C87.0503 66.3879 87.1527 66.4084 86.1593 65.5071C85.4834 64.9131 85.4834 64.8823 86.2208 64.1859C86.9581 63.469 88.0437 62.8647 89.1191 62.5574C89.9077 62.3321 91.9048 62.4141 92.7549 62.7008ZM26.7583 64.6673C28.3355 64.8823 29.9332 65.5276 31.367 66.5108C32.4116 67.238 34.2346 69.1327 34.1424 69.4092C34.1219 69.4605 33.6816 69.6858 33.1695 69.9009L32.2273 70.29L31.5411 69.5629C29.5747 67.4838 26.7788 66.4391 24.1672 66.7976C22.0984 67.0843 20.5416 67.8525 19.0259 69.3478L18.0529 70.29L17.1312 69.9009C16.6294 69.6755 16.189 69.4502 16.1787 69.399C16.1275 69.2659 17.0185 68.1905 17.7252 67.5247C20.132 65.2408 23.4195 64.1961 26.7583 64.6673ZM52.9767 64.6673C54.5539 64.8823 56.1515 65.5276 57.5854 66.5108C58.63 67.238 60.453 69.1327 60.3608 69.4092C60.3403 69.4605 59.9 69.6858 59.3879 69.9009L58.4456 70.29L57.7595 69.5629C55.7931 67.4838 52.9971 66.4391 50.3855 66.7976C48.3167 67.0843 46.76 67.8525 45.2443 69.3478L44.2713 70.29L43.3496 69.9009C42.8478 69.6755 42.4074 69.4502 42.3971 69.399C42.3459 69.2659 43.2369 68.1905 43.9436 67.5247C46.3504 65.2408 49.6379 64.1961 52.9767 64.6673ZM79.195 64.6673C80.7722 64.8823 82.3699 65.5276 83.8037 66.5108C84.8484 67.238 86.6714 69.1327 86.5792 69.4092C86.5587 69.4605 86.1183 69.6858 85.6063 69.9009L84.664 70.29L83.9779 69.5629C82.0115 67.4838 79.2155 66.4391 76.6039 66.7976C74.5351 67.0843 72.9784 67.8525 71.4627 69.3478L70.4897 70.29L69.568 69.9009C69.0661 69.6755 68.6258 69.4502 68.6155 69.399C68.5643 69.2659 69.4553 68.1905 70.162 67.5247C72.5688 65.2408 75.8563 64.1961 79.195 64.6673ZM13.0039 66.9717C13.475 67.2072 13.6798 67.4223 13.9154 67.873C14.11 68.2622 14.1202 68.3031 13.9563 68.5899L13.7925 68.9074H12.0514H10.3103L10.1465 68.5899C9.9826 68.2826 9.9826 68.2519 10.2182 67.832C10.7712 66.8385 11.9899 66.4596 13.0039 66.9717ZM39.2222 66.9717C39.6934 67.2072 39.8982 67.4223 40.1337 67.873C40.3283 68.2622 40.3386 68.3031 40.1747 68.5899L40.0108 68.9074H38.2698H36.5287L36.3649 68.5899C36.201 68.2826 36.201 68.2519 36.4365 67.832C36.9896 66.8385 38.2083 66.4596 39.2222 66.9717ZM65.4406 66.9717C65.9117 67.2072 66.1166 67.4223 66.3521 67.873C66.5467 68.2622 66.557 68.3031 66.3931 68.5899L66.2292 68.9074H64.4882H62.7471L62.5832 68.5899C62.4194 68.2826 62.4194 68.2519 62.6549 67.832C63.208 66.8385 64.4267 66.4596 65.4406 66.9717ZM91.659 66.9717C92.1301 67.2072 92.335 67.4223 92.5705 67.873C92.7651 68.2622 92.7753 68.3031 92.6115 68.5899L92.4476 68.9074H90.7066H88.9655L88.8016 68.5899C88.6378 68.2826 88.6377 68.2519 88.8733 67.832C89.4264 66.8385 90.6451 66.4596 91.659 66.9717ZM26.492 69.0815C27.2601 69.2249 27.9053 69.4912 28.6837 69.9828C29.2879 70.3617 30.2814 71.304 30.2814 71.4883C30.2814 71.56 29.5849 72.195 28.9807 72.6866C28.7349 72.871 28.7349 72.871 28.1818 72.3487C27.1884 71.4064 25.7956 70.9353 24.5768 71.1299C23.737 71.263 22.7948 71.7341 22.1393 72.3487C21.5863 72.871 21.5863 72.871 21.3405 72.6866C20.6646 72.1438 20.0398 71.56 20.0398 71.4679C20.0398 71.2835 21.0845 70.331 21.7502 69.9009C22.4466 69.4605 23.4502 69.102 24.3925 68.9688C25.0377 68.8767 25.56 68.9074 26.492 69.0815ZM52.7104 69.0815C53.4785 69.2249 54.1237 69.4912 54.9021 69.9828C55.5063 70.3617 56.4997 71.304 56.4997 71.4883C56.4997 71.56 55.8033 72.195 55.1991 72.6866C54.9533 72.871 54.9533 72.871 54.4002 72.3487C53.7448 71.7341 52.8025 71.263 51.973 71.1299C50.744 70.9353 49.3511 71.4064 48.3577 72.3487C47.8047 72.871 47.8047 72.871 47.5589 72.6866C46.8829 72.1438 46.2582 71.56 46.2582 71.4679C46.2582 71.2835 47.3028 70.331 47.9685 69.9009C48.665 69.4605 49.6686 69.102 50.6109 68.9688C51.2561 68.8767 51.7784 68.9074 52.7104 69.0815ZM78.9288 69.0815C79.6969 69.2249 80.3421 69.4912 81.1205 69.9828C81.7247 70.3617 82.7181 71.304 82.7181 71.4883C82.7181 71.56 82.0217 72.195 81.4175 72.6866C81.1717 72.871 81.1717 72.871 80.6186 72.3487C79.6252 71.4064 78.2323 70.9353 77.0136 71.1299C76.1738 71.263 75.2316 71.7341 74.5761 72.3487C74.023 72.871 74.0231 72.871 73.7773 72.6866C73.1013 72.1438 72.4766 71.56 72.4766 71.4679C72.4766 71.2835 73.5212 70.331 74.1869 69.9009C74.8833 69.4605 75.887 69.102 76.8292 68.9688C77.4745 68.8767 77.9968 68.9074 78.9288 69.0815ZM14.8166 71.4679C16.6908 71.9697 18.1246 72.7993 19.5892 74.2127C20.6236 75.1959 21.1561 75.8821 21.0025 76.0153C20.9513 76.0665 20.5621 76.2508 20.1422 76.4352C19.7223 76.6093 19.3229 76.7834 19.2512 76.8039C19.1898 76.8346 18.8006 76.5069 18.3807 76.0767C16.6499 74.2536 14.4991 73.3216 12.0514 73.3216C9.60366 73.3216 7.4427 74.2536 5.72212 76.0665L4.97448 76.8551L4.08347 76.4761C3.59187 76.2713 3.15148 76.0665 3.10028 76.0153C2.86472 75.8104 4.5341 73.9874 5.7426 73.1373C7.25835 72.0721 8.59999 71.5396 10.72 71.1709C10.8634 71.1401 11.6213 71.1401 12.4099 71.1606C13.5364 71.1913 14.0587 71.263 14.8166 71.4679ZM41.035 71.4679C42.9092 71.9697 44.343 72.7993 45.8076 74.2127C46.842 75.1959 47.3745 75.8821 47.2209 76.0153C47.1697 76.0665 46.7805 76.2508 46.3606 76.4352C45.9407 76.6093 45.5413 76.7834 45.4696 76.8039C45.4081 76.8346 45.019 76.5069 44.5991 76.0767C42.8682 74.2536 40.7175 73.3216 38.2698 73.3216C35.822 73.3216 33.6611 74.2536 31.9405 76.0665L31.1929 76.8551L30.3018 76.4761C29.8103 76.2713 29.3699 76.0665 29.3187 76.0153C29.0933 75.8104 30.7832 73.9669 31.9712 73.1373C33.4767 72.0721 34.8286 71.5396 36.9384 71.1709C37.0818 71.1401 37.8396 71.1401 38.6282 71.1606C39.7548 71.1913 40.2771 71.263 41.035 71.4679ZM67.2534 71.4679C69.1276 71.9697 70.5614 72.7993 72.0259 74.2127C73.0603 75.1959 73.5929 75.8821 73.4393 76.0153C73.3881 76.0665 72.9989 76.2508 72.579 76.4352C72.1591 76.6093 71.7597 76.7834 71.688 76.8039C71.6265 76.8346 71.2374 76.5069 70.8175 76.0767C69.0866 74.2536 66.9359 73.3216 64.4882 73.3216C62.0404 73.3216 59.8795 74.2536 58.1589 76.0665L57.4112 76.8551L56.5202 76.4761C56.0286 76.2713 55.5882 76.0665 55.537 76.0153C55.3117 75.8104 57.0016 73.9669 58.1896 73.1373C59.6951 72.0721 61.047 71.5396 63.1568 71.1709C63.3001 71.1401 64.058 71.1401 64.8466 71.1606C65.9732 71.1913 66.4955 71.263 67.2534 71.4679ZM93.4718 71.4679C95.346 71.9697 96.7798 72.7993 98.2443 74.2127C99.2787 75.1959 99.8113 75.8821 99.6577 76.0153C99.6065 76.0665 99.2173 76.2508 98.7974 76.4352C98.3775 76.6093 97.9781 76.7834 97.9166 76.8039C97.8552 76.8346 97.466 76.4966 97.0461 76.0665C95.2743 74.2434 93.1543 73.3216 90.7066 73.3216C88.2588 73.3216 86.0978 74.2536 84.3773 76.0665L83.6296 76.8551L82.7386 76.4761C82.247 76.2713 81.8066 76.0665 81.7554 76.0153C81.5301 75.8104 83.22 73.9669 84.408 73.1373C85.9135 72.0721 87.2654 71.5396 89.3751 71.1709C89.5185 71.1401 90.2764 71.1401 91.065 71.1606C92.1916 71.1913 92.7139 71.263 93.4718 71.4679ZM26.1745 73.5674C26.6149 73.7825 26.9017 74.1103 27.0962 74.5814C27.1987 74.8272 27.1987 74.9296 27.0758 75.1652L26.9324 75.4417L25.1606 75.4519L23.3888 75.4622L23.2352 75.1447C23.0918 74.8374 23.102 74.7862 23.3273 74.3766C23.9009 73.3626 25.0991 73.0144 26.1745 73.5674ZM52.3929 73.5674C52.8333 73.7825 53.12 74.1103 53.3146 74.5814C53.417 74.8272 53.417 74.9296 53.2941 75.1652L53.1508 75.4417L51.379 75.4519L49.6072 75.4622L49.4536 75.1447C49.3102 74.8374 49.3204 74.7862 49.5457 74.3766C50.1193 73.3626 51.3175 73.0144 52.3929 73.5674ZM78.6113 73.5674C79.0517 73.7825 79.3384 74.1103 79.533 74.5814C79.6354 74.8272 79.6354 74.9296 79.5125 75.1652L79.3692 75.4417L77.5974 75.4519L75.8256 75.4622L75.6719 75.1447C75.5286 74.8374 75.5388 74.7862 75.7641 74.3766C76.3377 73.3626 77.5359 73.0144 78.6113 73.5674ZM14.0997 75.8104C14.9907 76.1177 16.1071 76.8244 16.6908 77.4491C16.9571 77.7359 17.1722 78.0022 17.1722 78.0431C17.1722 78.1148 16.4757 78.7498 15.8715 79.2414C15.6257 79.4258 15.6257 79.4258 15.0931 78.9239C14.0485 77.951 13.1677 77.613 11.7954 77.6847C10.7507 77.7359 9.83922 78.1353 9.03014 78.8932C8.39516 79.4975 8.49758 79.518 7.50415 78.6167C6.8282 78.0227 6.8282 77.9919 7.56559 77.2955C8.30299 76.5786 9.38859 75.9743 10.464 75.667C11.2526 75.4417 13.2497 75.5236 14.0997 75.8104ZM40.3181 75.8104C41.2091 76.1177 42.3254 76.8244 42.9092 77.4491C43.1755 77.7359 43.3906 78.0022 43.3906 78.0431C43.3906 78.1148 42.6941 78.7498 42.0899 79.2414C41.8441 79.4258 41.8441 79.4258 41.3115 78.9239C40.2669 77.951 39.3861 77.613 38.0137 77.6847C36.9691 77.7359 36.0576 78.1353 35.2485 78.8932C34.6135 79.4975 34.716 79.518 33.7225 78.6167C33.0466 78.0227 33.0466 77.9919 33.784 77.2955C34.5214 76.5786 35.607 75.9743 36.6823 75.667C37.4709 75.4417 39.468 75.5236 40.3181 75.8104ZM66.5365 75.8104C67.4275 76.1177 68.5438 76.8244 69.1276 77.4491C69.3939 77.7359 69.6089 78.0022 69.6089 78.0431C69.6089 78.1148 68.9125 78.7498 68.3083 79.2414C68.0625 79.4258 68.0625 79.4258 67.5299 78.9239C66.4853 77.951 65.6045 77.613 64.2321 77.6847C63.1875 77.7359 62.276 78.1353 61.4669 78.8932C60.8319 79.4975 60.9343 79.518 59.9409 78.6167C59.265 78.0227 59.265 77.9919 60.0024 77.2955C60.7398 76.5786 61.8254 75.9743 62.9007 75.667C63.6893 75.4417 65.6864 75.5236 66.5365 75.8104ZM92.7549 75.8104C93.1236 75.9436 93.6971 76.2098 94.035 76.4147C94.6905 76.8039 95.8273 77.8281 95.8273 78.0124C95.8273 78.1148 95.2128 78.6884 94.5266 79.2414C94.2809 79.4258 94.2808 79.4258 93.7483 78.9239C92.7037 77.951 91.8229 77.613 90.4505 77.6847C89.4059 77.7359 88.4944 78.1353 87.6853 78.8932C87.0503 79.4975 87.1527 79.518 86.1593 78.6167C85.4834 78.0227 85.4834 77.9919 86.2208 77.2955C86.9581 76.5786 88.0437 75.9743 89.1191 75.667C89.9077 75.4417 91.9048 75.5236 92.7549 75.8104ZM26.7583 77.7769C28.3355 77.9919 29.9332 78.6372 31.367 79.6204C32.4116 80.3476 34.2346 82.2423 34.1424 82.5188C34.1219 82.57 33.6816 82.7954 33.1695 83.0104L32.2273 83.3996L31.5411 82.6725C29.5747 80.5934 26.7788 79.5487 24.1672 79.9072C22.0984 80.1939 20.5416 80.9621 19.0259 82.4574L18.0529 83.3996L17.1312 83.0104C16.6294 82.7851 16.189 82.5598 16.1787 82.5086C16.1275 82.3754 17.0185 81.3001 17.7252 80.6343C20.132 78.3504 23.4195 77.3057 26.7583 77.7769ZM52.9767 77.7769C54.5539 77.9919 56.1515 78.6372 57.5854 79.6204C58.63 80.3476 60.453 82.2423 60.3608 82.5188C60.3403 82.57 59.9 82.7954 59.3879 83.0104L58.4456 83.3996L57.7595 82.6725C55.7931 80.5934 52.9971 79.5487 50.3855 79.9072C48.3167 80.1939 46.76 80.9621 45.2443 82.4574L44.2713 83.3996L43.3496 83.0104C42.8478 82.7851 42.4074 82.5598 42.3971 82.5086C42.3459 82.3754 43.2369 81.3001 43.9436 80.6343C46.3504 78.3504 49.6379 77.3057 52.9767 77.7769ZM79.195 77.7769C80.7722 77.9919 82.3699 78.6372 83.8037 79.6204C84.8484 80.3476 86.6714 82.2423 86.5792 82.5188C86.5587 82.57 86.1183 82.7954 85.6063 83.0104L84.664 83.3996L83.9779 82.6725C82.0115 80.5934 79.2155 79.5487 76.6039 79.9072C74.5351 80.1939 72.9784 80.9621 71.4627 82.4574L70.4897 83.3996L69.568 83.0104C69.0661 82.7851 68.6258 82.5598 68.6155 82.5086C68.5643 82.3754 69.4553 81.3001 70.162 80.6343C72.5688 78.3504 75.8563 77.3057 79.195 77.7769ZM13.0039 80.0813C13.475 80.3168 13.6798 80.5319 13.9154 80.9826C14.11 81.3717 14.1202 81.4127 13.9563 81.6995L13.7925 82.017H12.0514H10.3103L10.1465 81.6995C9.9826 81.3922 9.9826 81.3615 10.2182 80.9416C10.7712 79.9481 11.9899 79.5692 13.0039 80.0813ZM39.2222 80.0813C39.6934 80.3168 39.8982 80.5319 40.1337 80.9826C40.3283 81.3717 40.3386 81.4127 40.1747 81.6995L40.0108 82.017H38.2698H36.5287L36.3649 81.6995C36.201 81.3922 36.201 81.3615 36.4365 80.9416C36.9896 79.9481 38.2083 79.5692 39.2222 80.0813ZM65.4406 80.0813C65.9117 80.3168 66.1166 80.5319 66.3521 80.9826C66.5467 81.3717 66.557 81.4127 66.3931 81.6995L66.2292 82.017H64.4882H62.7471L62.5832 81.6995C62.4194 81.3922 62.4194 81.3615 62.6549 80.9416C63.208 79.9481 64.4267 79.5692 65.4406 80.0813ZM91.659 80.0813C92.1301 80.3168 92.335 80.5319 92.5705 80.9826C92.7651 81.3717 92.7753 81.4127 92.6115 81.6995L92.4476 82.017H90.7066H88.9655L88.8016 81.6995C88.6378 81.3922 88.6377 81.3615 88.8733 80.9416C89.4264 79.9481 90.6451 79.5692 91.659 80.0813ZM26.492 82.1911C27.2601 82.3345 27.9053 82.6008 28.6837 83.0924C29.2879 83.4713 30.2814 84.4136 30.2814 84.5979C30.2814 84.6696 29.5849 85.3046 28.9807 85.7962C28.7349 85.9806 28.7349 85.9806 28.1818 85.4583C27.1884 84.516 25.7956 84.0449 24.5768 84.2395C23.737 84.3726 22.7948 84.8437 22.1393 85.4583C21.5863 85.9806 21.5863 85.9806 21.3405 85.7962C20.6646 85.2534 20.0398 84.6696 20.0398 84.5775C20.0398 84.3931 21.0845 83.4406 21.7502 83.0104C22.4466 82.57 23.4502 82.2116 24.3925 82.0784C25.0377 81.9863 25.56 82.017 26.492 82.1911ZM52.7104 82.1911C53.4785 82.3345 54.1237 82.6008 54.9021 83.0924C55.5063 83.4713 56.4997 84.4136 56.4997 84.5979C56.4997 84.6696 55.8033 85.3046 55.1991 85.7962C54.9533 85.9806 54.9533 85.9806 54.4002 85.4583C52.6489 83.7991 50.109 83.7991 48.3577 85.4583C47.8047 85.9806 47.8047 85.9806 47.5589 85.7962C46.8829 85.2534 46.2582 84.6696 46.2582 84.5775C46.2582 84.3931 47.3028 83.4406 47.9685 83.0104C48.665 82.57 49.6686 82.2116 50.6109 82.0784C51.2561 81.9863 51.7784 82.017 52.7104 82.1911ZM78.9288 82.1911C79.6969 82.3345 80.3421 82.6008 81.1205 83.0924C81.7247 83.4713 82.7181 84.4136 82.7181 84.5979C82.7181 84.6696 82.0217 85.3046 81.4175 85.7962C81.1717 85.9806 81.1717 85.9806 80.6186 85.4583C78.8673 83.7991 76.3274 83.7991 74.5761 85.4583C74.023 85.9806 74.0231 85.9806 73.7773 85.7962C73.1013 85.2534 72.4766 84.6696 72.4766 84.5775C72.4766 84.3931 73.5212 83.4406 74.1869 83.0104C74.8833 82.57 75.887 82.2116 76.8292 82.0784C77.4745 81.9863 77.9968 82.017 78.9288 82.1911Z" fill="#007A9B"/>
<path d="M35.5693 83.2629C33.4192 83.5844 31.5623 84.2834 29.9008 85.4298L29.0073 86.0449L32.8887 86.0869C35.0109 86.1008 38.5013 86.1008 40.6374 86.0869L44.5048 86.0449L43.6113 85.4298C42.4106 84.605 40.6654 83.8081 39.4507 83.5425C38.3896 83.3048 36.2953 83.151 35.5693 83.2629Z" fill="#007A9B"/>
<path d="M71.3115 83.2629C69.1614 83.5844 67.3045 84.2834 65.643 85.4298L64.7495 86.0449L68.6308 86.0869C70.753 86.1008 74.2435 86.1008 76.3796 86.0869L80.247 86.0449L79.3535 85.4298C78.1528 84.605 76.4075 83.8081 75.1929 83.5425C74.1318 83.3048 72.0375 83.151 71.3115 83.2629Z" fill="#007A9B"/>
</g>
</svg>
